<?xml version="1.0" encoding="UTF-8" standalone="no"?>
<svg
   xmlns:dc="http://purl.org/dc/elements/1.1/"
   xmlns:cc="http://creativecommons.org/ns#"
   xmlns:rdf="http://www.w3.org/1999/02/22-rdf-syntax-ns#"
   xmlns:svg="http://www.w3.org/2000/svg"
   xmlns="http://www.w3.org/2000/svg"
   xmlns:sodipodi="http://sodipodi.sourceforge.net/DTD/sodipodi-0.dtd"
   xmlns:inkscape="http://www.inkscape.org/namespaces/inkscape"
   width="400"
   height="400"
   viewBox="0 0 105.83333 105.83334"
   version="1.1"
   id="svg8"
   inkscape:version="1.0 (4035a4fb49, 2020-05-01)"
   sodipodi:docname="seleni_logo.svg"
   inkscape:export-filename="E:\export\git\Seleni\src\main\resources\assets\modid\icon.png"
   inkscape:export-xdpi="96"
   inkscape:export-ydpi="96">
  <defs
     id="defs2" />
  <sodipodi:namedview
     id="base"
     pagecolor="#ffffff"
     bordercolor="#666666"
     borderopacity="1.0"
     inkscape:pageopacity="0.0"
     inkscape:pageshadow="2"
     inkscape:zoom="1.4"
     inkscape:cx="341.15828"
     inkscape:cy="291.40066"
     inkscape:document-units="mm"
     inkscape:current-layer="layer1"
     inkscape:document-rotation="0"
     showgrid="true"
     units="px"
     inkscape:window-width="1920"
     inkscape:window-height="1057"
     inkscape:window-x="-8"
     inkscape:window-y="-8"
     inkscape:window-maximized="1">
    <inkscape:grid
       type="xygrid"
       id="grid833"
       spacingx="2.6458334"
       spacingy="2.6458334" />
  </sodipodi:namedview>
  <metadata
     id="metadata5">
    <rdf:RDF>
      <cc:Work
         rdf:about="">
        <dc:format>image/svg+xml</dc:format>
        <dc:type
           rdf:resource="http://purl.org/dc/dcmitype/StillImage" />
        <dc:title />
      </cc:Work>
    </rdf:RDF>
  </metadata>
  <g
     inkscape:label="Layer 1"
     inkscape:groupmode="layer"
     id="layer1">
    <path
       transform="scale(0.26458333)"
       d="M 200 50 A 150 150 0 0 0 50 200 A 150 150 0 0 0 200 350 A 150 150 0 0 0 328.99414 276.55078 A 110 110 0 0 1 250 310 A 110 110 0 0 1 140 200 A 110 110 0 0 1 250 90 A 110 110 0 0 1 329 123.45508 A 150 150 0 0 0 200 50 z "
       style="fill:#000000;stroke-width:3.77953;stop-color:#000000"
       id="path835" />
    <path
       transform="scale(0.26458333)"
       d="M 299.94727 150 A 49.999997 49.999997 0 0 0 250 200 A 49.999997 49.999997 0 0 0 300 250 A 49.999997 49.999997 0 0 0 350 200 A 49.999997 49.999997 0 0 0 300 150 A 49.999997 49.999997 0 0 0 299.94727 150 z M 299.92383 160 A 39.999999 39.999999 0 0 1 300 160 A 39.999999 39.999999 0 0 1 340 200 A 39.999999 39.999999 0 0 1 300 240 A 39.999999 39.999999 0 0 1 260 200 A 39.999999 39.999999 0 0 1 299.92383 160 z "
       style="fill:#000000;stroke-width:3.77953;stop-color:#000000"
       id="path843" />
  </g>
</svg>
